<?xml version="1.0" encoding="UTF-8"?>
<!DOCTYPE svg PUBLIC "-//W3C//DTD SVG 1.1//EN" "http://www.w3.org/Graphics/SVG/1.1/DTD/svg11.dtd">
<!-- Creator: CorelDRAW X7 -->
<svg xmlns="http://www.w3.org/2000/svg" xml:space="preserve" width="64px" height="64px" version="1.1" style="shape-rendering:geometricPrecision; text-rendering:geometricPrecision; image-rendering:optimizeQuality; fill-rule:evenodd; clip-rule:evenodd"
viewBox="0 0 64 64"
 xmlns:xlink="http://www.w3.org/1999/xlink">
 <defs>
  <style type="text/css">
   <![CDATA[
    .fil0 {fill:#F08519}
   ]]>
  </style>
 </defs>
 <g id="Layer_x0020_1">
  <metadata id="CorelCorpID_0Corel-Layer"/>
  <path class="fil0" d="M32 0l0 0c18,0 32,14 32,32l0 0c0,18 -14,32 -32,32l0 0c-18,0 -32,-14 -32,-32l0 0c0,-18 14,-32 32,-32zm-3 20c2,0 3,2 4,5 1,2 1,4 1,6l0 1c0,3 0,5 -1,7 -1,3 -2,5 -4,5 0,0 0,0 0,0 -2,0 -3,-1 -4,-2 -1,-1 -2,-3 -4,-5 -1,-2 -2,-3 -3,-4l0 1c-3,7 -6,11 -8,11 -1,0 -1,-1 -1,-1 -2,-2 -3,-4 -4,-8 0,-1 0,-3 0,-4 0,-1 0,-3 0,-4 0,-1 1,-3 2,-4 1,-2 2,-4 3,-4 1,0 2,1 2,2 1,1 1,1 1,2 0,1 -1,2 -1,4 0,2 -1,3 -1,4 0,1 0,1 1,2 0,0 1,-2 2,-3 0,-1 0,-2 0,-3 1,0 1,0 2,-1 1,0 1,-1 2,-1 0,0 1,0 1,0 2,1 4,3 6,7 1,1 2,2 3,2 0,0 0,-1 0,-2 0,-2 0,-3 -1,-6 0,-1 0,-3 0,-4 0,-1 0,-2 0,-3 1,0 1,0 2,0l0 0zm26 -1c1,0 2,1 3,1 1,1 1,2 1,2 0,0 0,1 0,1 -3,1 -6,4 -8,6 -2,3 -4,7 -5,11 0,3 -1,5 -3,5 0,0 -1,-1 -1,-1 -2,-2 -3,-4 -4,-8 -1,-4 -1,-7 -1,-10 0,-1 1,-2 1,-2 1,-1 1,-1 1,-1 1,0 1,0 1,1 2,1 3,3 3,7 1,-2 2,-5 5,-7 2,-3 5,-5 7,-5l0 0z"/>
 </g>
</svg>
